<?xml version="1.0" standalone="no"?>
<!DOCTYPE svg PUBLIC "-//W3C//DTD SVG 20010904//EN"
 "http://www.w3.org/TR/2001/REC-SVG-20010904/DTD/svg10.dtd">
<svg version="1.0" xmlns="http://www.w3.org/2000/svg"
 width="920.000000pt" height="920.000000pt" viewBox="0 0 920.000000 920.000000"
 preserveAspectRatio="xMidYMid meet">

<g transform="translate(0.000000,920.000000) scale(0.100000,-0.100000)"
fill="#000000" stroke="none">
<path d="M410 4687 l0 -542 264 0 c145 0 262 3 259 8 -2 4 -10 7 -17 7 -20 0
-127 73 -174 119 -59 57 -116 149 -144 229 -33 96 -33 268 0 364 45 129 141
246 264 321 l62 37 -257 0 -257 0 0 -543z"/>
<path d="M1380 5225 c0 -2 24 -17 52 -31 63 -32 173 -140 213 -208 16 -27 39
-77 52 -112 l23 -64 -129 0 -128 0 -12 26 c-71 156 -278 231 -438 160 -72 -33
-132 -91 -169 -166 -39 -78 -40 -190 -3 -270 44 -95 119 -163 211 -191 49 -15
157 -13 206 5 84 30 169 108 195 179 6 15 21 17 133 17 l127 0 -7 -32 c-3 -17
-23 -65 -43 -107 -46 -97 -148 -201 -248 -254 l-70 -37 285 2 c157 2 284 6
283 11 -2 4 -3 248 -3 542 l0 535 -265 0 c-146 0 -265 -2 -265 -5z"/>
<path d="M5255 5190 c-60 -10 -134 -18 -162 -19 -46 -1 -53 -4 -53 -21 0 -16
7 -20 33 -20 41 0 77 -25 77 -53 0 -19 -65 -238 -220 -737 l-48 -155 96 -3
c52 -1 99 1 103 5 4 4 24 55 44 113 41 116 91 220 134 284 80 115 172 187 213
165 26 -14 23 -44 -16 -135 -19 -44 -50 -131 -70 -194 -62 -189 -41 -256 77
-254 72 1 121 29 201 115 69 74 75 86 52 95 -8 3 -38 -19 -73 -55 -32 -34 -63
-61 -68 -61 -37 1 -34 19 26 181 85 227 103 294 89 340 -15 52 -51 74 -125 73
-96 -1 -197 -65 -295 -187 -24 -31 -46 -55 -47 -53 -3 3 9 46 116 414 28 95
51 175 51 178 0 5 0 5 -135 -16z"/>
<path d="M6970 5195 c-41 -7 -114 -16 -162 -20 -77 -7 -88 -10 -88 -26 0 -15
7 -19 35 -19 21 0 43 -8 54 -19 24 -24 28 -5 -92 -396 -145 -468 -149 -488
-94 -529 39 -29 126 -28 183 2 38 19 174 154 174 172 0 4 -8 11 -17 14 -13 5
-31 -8 -69 -48 -37 -41 -58 -56 -78 -56 -22 0 -26 5 -26 27 0 22 263 882 277
906 5 9 -1 8 -97 -8z"/>
<path d="M3030 5174 c-94 -20 -234 -92 -307 -159 -81 -73 -149 -177 -186 -284
-25 -72 -30 -102 -31 -186 -1 -89 2 -106 26 -158 69 -147 190 -221 383 -233
185 -12 368 61 473 187 l23 28 -24 15 c-22 15 -25 14 -76 -34 -82 -77 -161
-111 -271 -118 -107 -6 -162 11 -216 66 -162 166 5 677 264 808 49 25 68 29
139 29 74 0 85 -3 124 -30 60 -42 92 -108 93 -190 1 -60 2 -64 27 -67 26 -4
26 -3 64 156 21 89 40 167 42 174 8 20 -45 14 -67 -8 -25 -25 -44 -25 -156 0
-104 23 -230 25 -324 4z"/>
<path d="M3870 4846 c-81 -17 -156 -62 -235 -141 -79 -78 -117 -142 -141 -236
-47 -184 53 -312 244 -312 90 1 156 30 229 103 65 66 83 98 63 110 -25 16 -34
11 -68 -35 -60 -79 -172 -110 -227 -62 -30 26 -47 87 -37 136 7 32 9 34 99 56
153 39 249 92 304 167 23 33 29 51 29 94 0 45 -4 57 -30 82 -19 20 -47 34 -80
41 -61 13 -79 13 -150 -3z m98 -48 c16 -16 15 -81 -2 -122 -31 -74 -124 -152
-210 -175 l-38 -10 6 32 c13 63 93 212 135 250 43 38 86 48 109 25z"/>
<path d="M4343 4836 c-117 -17 -143 -24 -143 -37 0 -11 12 -18 40 -23 64 -10
69 27 -55 -401 -112 -387 -124 -423 -152 -445 -14 -11 -39 -20 -54 -20 -22 0
-29 -5 -29 -20 0 -19 7 -20 210 -20 203 0 210 1 210 20 0 15 -7 20 -24 20 -36
0 -72 16 -80 36 -5 13 47 229 59 242 1 1 19 -5 41 -14 88 -37 235 5 337 96 56
49 126 145 155 212 48 110 55 252 16 305 -41 55 -70 68 -147 68 -89 0 -132
-19 -205 -92 -49 -48 -71 -66 -58 -45 2 4 16 38 30 75 22 60 23 67 8 65 -9 0
-81 -10 -159 -22z m332 -101 c17 -16 25 -35 25 -57 0 -99 -103 -341 -176 -415
-46 -45 -98 -63 -143 -47 -39 14 -39 70 -3 175 97 275 115 309 191 349 49 26
77 25 106 -5z"/>
<path d="M6147 4849 c-72 -17 -142 -61 -218 -139 -164 -166 -224 -397 -130
-502 50 -56 166 -67 251 -23 33 17 94 74 129 120 19 27 21 27 16 6 -31 -110
43 -178 157 -145 40 12 66 31 124 89 41 41 74 78 74 83 0 6 -7 13 -16 16 -12
4 -32 -9 -65 -44 -27 -28 -57 -50 -68 -50 -41 0 -27 71 64 336 47 136 85 249
85 252 0 2 -24 2 -52 -2 -29 -3 -71 -6 -94 -6 -39 0 -41 -2 -54 -41 l-14 -41
-15 34 c-17 36 -71 69 -111 67 -14 -1 -42 -5 -63 -10z m128 -69 c62 -68 -68
-431 -179 -500 -44 -27 -60 -25 -98 9 -29 26 -33 35 -32 78 1 54 31 148 76
238 76 155 181 233 233 175z"/>
<path d="M7383 4846 c-89 -22 -165 -66 -234 -135 -162 -162 -197 -383 -76
-486 160 -137 470 -46 601 177 86 148 88 307 4 385 -61 58 -195 85 -295 59z
m132 -51 c21 -20 25 -34 25 -80 0 -173 -112 -455 -199 -499 -82 -43 -141 -5
-141 91 0 64 50 270 84 346 26 57 97 144 130 157 39 16 76 11 101 -15z"/>
<path d="M8125 4844 c-38 -7 -112 -16 -162 -20 -81 -6 -93 -9 -93 -25 0 -14 7
-19 26 -19 35 0 64 -17 64 -38 0 -9 -38 -140 -84 -290 l-83 -273 99 3 100 3
28 89 c38 117 138 317 193 387 51 63 116 102 151 89 33 -12 25 -56 -45 -235
-70 -183 -87 -279 -54 -315 47 -52 147 -47 230 10 48 33 130 134 120 150 -13
21 -34 9 -70 -39 -35 -49 -65 -68 -85 -56 -18 11 -11 37 50 205 101 274 103
355 9 380 -54 15 -123 5 -174 -25 -46 -27 -153 -131 -198 -192 -17 -24 -32
-41 -34 -40 -2 2 17 61 42 132 25 70 44 129 43 130 -2 1 -34 -4 -73 -11z"/>
<path d="M8677 4482 c-21 -23 -22 -56 -1 -76 22 -22 31 -20 11 2 -23 26 -21
58 5 76 12 9 18 16 12 16 -6 0 -18 -8 -27 -18z"/>
<path d="M8758 4484 c22 -15 30 -58 13 -68 -14 -9 -32 20 -25 40 5 18 5 18 -6
1 -9 -15 -9 -22 4 -36 9 -10 13 -21 9 -24 -3 -4 -2 -7 3 -7 18 0 34 24 34 51
0 28 -22 59 -43 59 -6 0 -1 -7 11 -16z"/>
<path d="M8701 4443 c0 -29 2 -33 8 -18 7 18 4 55 -5 55 -2 0 -4 -17 -3 -37z"/>
<path d="M8718 4383 c7 -3 16 -2 19 1 4 3 -2 6 -13 5 -11 0 -14 -3 -6 -6z"/>
<path d="M2347 3733 c-9 -9 -9 -51 1 -56 4 -3 7 10 7 29 0 19 0 34 -1 34 0 0
-4 -3 -7 -7z"/>
<path d="M2372 3710 c0 -14 2 -19 5 -12 2 6 2 18 0 25 -3 6 -5 1 -5 -13z"/>
<path d="M2416 3683 c-6 -14 -5 -15 5 -6 7 7 10 15 7 18 -3 3 -9 -2 -12 -12z"/>
</g>
</svg>
