<?xml version="1.0" encoding="utf-8"?>
<!-- Generator: Adobe Illustrator 16.0.0, SVG Export Plug-In . SVG Version: 6.00 Build 0)  -->
<!DOCTYPE svg PUBLIC "-//W3C//DTD SVG 1.1//EN" "http://www.w3.org/Graphics/SVG/1.1/DTD/svg11.dtd">
<svg version="1.1" id="Layer_1" xmlns="http://www.w3.org/2000/svg" xmlns:xlink="http://www.w3.org/1999/xlink" x="0px" y="0px"
	 width="800px" height="203.99px" viewBox="0 0 800 203.99" enable-background="new 0 0 800 203.99" xml:space="preserve">
<g>
	<path fill="#0054A4" d="M791.336,54.926v-0.466l-0.021-1.124v-1.121l-0.124-0.752l-0.263-0.759l-0.468-0.792l-0.438-0.537
		l-0.584-0.387l-0.716-0.307l-0.78-0.19l0.869-0.208l0.7-0.223l0.576-0.292l0.548-0.445l0.408-0.478l0.271-0.613l0.146-0.687
		l0.073-0.737l-0.073-0.89l-0.168-0.782l-0.351-0.674l-0.43-0.584l-0.57-0.431l-0.737-0.369l-0.692-0.27l-0.942-0.168l-1.088-0.099
		l-1.298-0.048h-5.205v14.898h2.591v-5.814h2.072h1.001l0.818,0.088l0.634,0.128l0.461,0.193l0.503,0.412l0.453,0.57l0.241,0.661
		l0.138,0.828l0.081,0.971v1.182l0.051,0.474l0.065,0.161l0.051,0.146h2.439l-0.14-0.175L791.336,54.926z M787.461,47.4
		l-0.665,0.175l-0.825,0.069l-1.029,0.036h-2.372v-5.357h2.277l1.016,0.055l0.832,0.084l0.743,0.182l0.556,0.215l0.46,0.332
		l0.27,0.496l0.168,0.61l0.081,0.759l-0.081,0.613l-0.168,0.562l-0.27,0.489l-0.438,0.361L787.461,47.4z"/>
	<path fill="#0054A4" d="M798.9,46.43l-0.205-1.511l-0.445-1.428l-0.563-1.361l-0.708-1.321l-0.875-1.227l-1.059-1.161l-1.168-1.029
		l-1.27-0.902l-1.293-0.711l-1.343-0.551l-1.46-0.416l-1.475-0.223l-1.621-0.077l-1.532,0.077l-1.496,0.237l-1.432,0.416
		l-1.372,0.559l-1.292,0.716l-1.262,0.897l-1.147,1.007l-1.021,1.161l-0.913,1.281l-0.722,1.295l-0.569,1.369l-0.409,1.405
		L772,46.455l-0.079,1.559L772,49.579l0.248,1.515l0.409,1.413l0.569,1.398l0.722,1.313l0.855,1.237l1.059,1.183l1.168,1.029
		l1.225,0.869l1.293,0.759l1.387,0.566l1.453,0.416l1.482,0.237l1.546,0.077l1.621-0.077l1.475-0.237l1.46-0.416l1.364-0.566
		l1.293-0.759l1.248-0.869l1.168-1.029l1.059-1.201l0.897-1.219l0.715-1.343l0.576-1.369l0.402-1.445l0.24-1.482L799,48.014
		L798.9,46.43z M797.001,49.356l-0.227,1.292l-0.328,1.244l-0.475,1.175l-0.629,1.143l-0.729,1.077l-0.906,1.029l-1.029,0.883
		l-1.043,0.751l-1.124,0.661l-1.205,0.482l-1.211,0.369l-1.3,0.227l-1.38,0.065l-1.327-0.065l-1.293-0.227l-1.24-0.369l-1.213-0.482
		l-1.095-0.661l-1.064-0.751l-1.008-0.883l-0.877-1.029l-0.758-1.077l-0.613-1.143l-0.519-1.175l-0.307-1.244l-0.226-1.292
		l-0.073-1.343l0.109-1.369l0.189-1.318l0.336-1.193l0.51-1.197l0.637-1.12l0.729-1.052l0.89-1l0.993-0.913l1.087-0.799l1.125-0.639
		l1.168-0.459l1.24-0.362l1.293-0.223l1.306-0.047l1.38,0.047l1.3,0.223l1.211,0.362l1.205,0.459l1.124,0.639l1.043,0.799
		l1.029,0.913l0.906,1l0.729,1.052l0.629,1.12l0.489,1.197l0.313,1.193l0.248,1.318l0.059,1.369L797.001,49.356z"/>
	<polygon fill="#0054A4" points="122.067,119.073 122.79,121.347 123.724,123.526 124.884,125.132 126.282,125.821 128.042,125.529 
		129.271,124.373 129.899,122.913 130.451,121.132 130.885,119.318 131.242,117.496 131.458,115.639 131.582,113.773 
		131.641,111.905 131.618,110.019 131.534,108.12 131.41,106.208 131.242,104.317 131.005,102.409 130.775,100.496 130.498,98.584 
		130.239,96.678 129.998,94.781 129.753,92.959 129.545,91.073 129.362,89.219 129.209,87.409 129.085,85.649 129.071,83.919 
		129.129,82.215 129.224,80.525 129.362,78.843 129.494,77.179 129.615,75.525 129.677,73.891 129.716,72.222 129.629,70.55 
		129.494,68.93 129.209,67.317 128.096,65.857 126.483,65.16 125.279,65.073 124.001,65.16 122.125,66.656 120.669,68.39 
		119.476,70.295 118.428,72.372 117.443,74.438 116.399,76.51 115.169,78.554 113.68,80.397 111.469,82.752 110.286,83.729 
		109.038,84.627 107.753,85.358 106.446,86.018 105.092,86.577 103.698,87.069 102.267,87.478 100.808,87.806 99.318,88.062 
		97.815,88.292 96.278,88.43 94.738,88.543 93.198,88.605 91.639,88.661 90.033,88.661 88.475,88.682 86.902,88.682 84.687,88.558 
		82.53,88.43 80.41,88.138 78.398,87.66 76.526,86.854 74.84,85.696 73.391,84.084 73.153,79.981 72.986,75.81 72.865,71.525 
		72.807,67.171 72.807,62.77 72.865,58.298 72.986,53.846 73.128,49.368 73.303,44.922 73.511,40.506 73.76,36.134 74.034,31.856 
		75.033,30.156 76.348,28.908 77.892,28.013 79.61,27.287 81.406,26.802 83.191,26.389 85.019,26.291 86.862,26.167 88.738,26.075 
		90.625,25.984 92.52,25.875 94.424,25.798 96.351,25.74 98.271,25.707 100.183,25.707 102.122,25.74 104.02,25.798 105.947,25.875 
		107.796,26.028 109.688,26.244 111.53,26.477 113.374,26.78 115.169,27.119 116.936,27.531 118.687,28.024 120.363,28.561 
		122.034,29.225 123.647,29.933 125.213,30.714 126.706,31.583 128.184,32.586 129.607,33.615 130.914,34.82 132.217,36.09 
		133.399,37.469 134.563,38.97 135.611,40.55 136.589,42.287 137.18,43.554 137.593,44.966 137.903,46.517 138.147,48.101 
		138.396,49.667 138.738,51.174 139.147,52.572 139.797,53.846 141.173,55.298 142.479,55.934 144.567,55.788 146.042,54.89 
		147.444,53.248 148.381,51.419 148.958,49.444 149.239,47.316 149.239,45.062 149.071,42.802 148.903,41.634 148.703,40.458 
		148.52,39.283 148.297,38.13 147.844,35.842 147.428,33.601 147.089,31.466 146.863,29.444 146.575,28.013 146.498,26.389 
		146.498,24.678 146.644,22.969 146.717,21.236 146.779,19.531 146.717,17.904 146.473,16.407 146.02,15.032 144.801,13.371 
		143.483,12.542 141.801,12.028 134.563,12.375 127.29,12.688 119.976,12.973 112.596,13.236 105.235,13.48 97.844,13.667 
		90.417,13.849 83.03,13.94 75.603,13.973 68.216,13.94 60.847,13.816 53.485,13.615 46.168,13.309 38.927,12.933 31.722,12.426 
		24.587,11.791 22.394,11.747 21.218,11.699 20.065,11.623 18.897,11.546 17.701,11.473 16.532,11.4 15.357,11.374 14.189,11.374 
		11.887,11.473 9.711,11.813 7.667,12.426 5.781,13.418 4.124,14.816 3.77,16.206 3.905,17.535 4.394,18.779 5.733,20.36 
		6.93,21.196 8.379,21.506 9.835,21.776 11.325,22.098 12.785,22.342 14.259,22.626 15.726,22.969 17.186,23.287 18.591,23.685 
		20.018,24.17 21.379,24.707 22.708,25.338 23.985,26.145 25.218,27.024 26.394,28.126 27.463,29.269 28.401,30.514 29.248,31.813 
		29.985,33.156 30.613,34.539 31.167,35.98 31.631,37.469 32.029,38.992 32.339,40.506 32.599,42.064 32.814,43.652 32.988,45.266 
		33.105,46.857 33.105,146.884 33.183,148.333 33.237,149.825 33.27,151.281 33.321,152.775 33.321,154.263 33.307,155.753 
		33.237,157.212 33.135,158.661 32.988,160.1 32.763,161.513 32.518,162.91 32.153,164.301 31.77,165.599 31.273,166.914 
		30.719,168.165 30.05,169.377 28.467,171.622 26.423,173.676 24.715,174.997 23.521,175.684 22.233,176.191 20.843,176.61 
		19.434,176.997 18.022,177.396 16.719,177.848 14.996,178.753 13.766,180.074 13.306,181.318 13.2,182.818 13.66,184.529 
		14.656,185.714 15.996,186.541 17.503,187.035 19.124,187.188 23.952,186.633 28.777,186.206 33.642,185.88 38.493,185.698 
		43.362,185.637 48.215,185.637 53.077,185.714 57.957,185.88 62.844,186.125 67.679,186.451 72.566,186.819 77.424,187.188 
		82.256,187.494 88.843,187.878 91.085,188.002 93.052,188.078 95.027,188.078 95.972,187.986 97.815,187.662 99.52,187.064 
		101.056,186.006 102.052,184.731 102.359,183.556 102.209,182.348 101.482,180.644 100.022,179.725 97.738,178.893 96.537,178.522 
		95.362,178.188 94.172,177.848 92.953,177.526 91.731,177.221 90.486,176.902 89.293,176.566 88.122,176.191 86.924,175.829 
		85.756,175.365 83.53,174.413 81.424,173.217 79.498,171.742 77.8,169.961 76.34,167.789 75.712,166.567 75.172,165.177 
		74.468,162.081 73.906,158.993 73.438,155.829 73.128,152.68 72.883,149.529 72.737,146.358 72.661,143.136 72.661,139.931 
		72.661,136.683 72.719,133.456 72.789,130.193 72.848,126.913 72.927,123.621 72.953,120.303 72.953,116.975 72.906,113.636 
		72.789,110.288 74.256,104.726 75.654,103.504 77.264,102.599 78.997,101.916 80.764,101.401 82.453,101.256 84.194,101.103 
		85.924,101.011 87.65,100.916 89.395,100.839 91.161,100.789 92.866,100.763 94.61,100.789 96.351,100.861 98.03,100.964 
		99.763,101.103 101.424,101.347 103.082,101.646 104.738,102.015 106.308,102.475 107.874,102.988 109.424,103.591 
		110.914,104.317 112.344,105.117 113.742,105.992 115.107,107.021 116.399,108.161 117.64,109.387 119.162,111.313 120.286,113.42 
		121.06,115.639 121.742,117.953 	"/>
	<path fill="#0054A4" d="M318.704,177.318l-1.497-1.411l-1.93-0.418l-1.912-0.568l-1.822-0.675l-1.84-0.781l-1.756-0.985
		l-1.697-1.016l-1.62-1.174l-1.551-1.296l-1.475-1.397l-1.374-1.438l-1.251-1.589l-1.171-1.659l-1.044-1.734l-0.93-1.813
		l-40.651-88.115L222.902,7.688l-2.398-1.029l-1.259-0.077l-1.274,0.23l-1.445,1.025l-3.733,6.299l-3.617,6.362l-3.482,6.405
		l-3.394,6.454l-3.31,6.496l-3.292,6.511l-3.19,6.543l-3.152,6.544l-3.164,6.537l-3.114,6.58l-3.146,6.558l-27.836,61.932
		l-0.81,1.64l-0.755,1.649l-0.737,1.66l-0.699,1.697l-0.661,1.697l-0.69,1.712l-0.654,1.703l-0.664,1.713l-0.705,1.715l-0.708,1.658
		l-0.751,1.682l-0.778,1.636l-0.851,1.613l-0.916,1.611l-0.989,1.537l-1.047,1.522l-1.165,1.489l-1.252,1.412l-1.365,1.368
		l-2.007,1.734l-1.164,0.785l-1.318,0.598l-1.427,0.521l-1.497,0.445l-1.493,0.431l-1.409,0.485l-1.311,0.589l-1.679,1.146
		l-1.099,1.565l-0.369,1.383l0.029,1.69l0.584,1.668l1.146,1.106l1.438,0.711l1.562,0.187l2.891-0.724l2.879-0.537l2.956-0.463
		l2.935-0.306l2.971-0.229l2.988-0.14l2.989-0.063l3.021,0.034l3.008,0.076l3.029,0.168l3.008,0.179l3.04,0.222l3.018,0.229
		l2.989,0.271l3.026,0.266l2.993,0.278l2.959,0.245l3.833,0.214l1.806,0.047l1.767-0.076l1.64-0.185l1.554-0.482l1.321-0.808
		l1.08-1.306l0.274-1.245l0.077-1.295l-0.243-1.271l-0.555-1.156l-1.54-0.992l-2.274-0.745l-1.179-0.292l-1.164-0.263l-1.201-0.243
		l-1.198-0.231l-1.208-0.216l-1.204-0.214L177,175.323l-1.176-0.278l-2.291-0.698l-2.202-0.93l-2.087-1.306l-1.901-1.705
		l-1.733-1.88l-1.285-2.128l-0.471-1.146l-0.376-1.197l-0.295-1.237l-0.245-1.252l-0.099-1.291l-0.062-1.282v-1.335l0.081-1.267
		l0.138-1.329l0.212-1.244l0.23-1.245l0.285-1.215l0.8-2.28l0.463-1.184l0.412-1.196l0.391-1.223l0.365-1.198l0.394-1.219
		l0.369-1.222l0.384-1.223l0.386-1.22l0.413-1.197l0.478-1.167l0.49-1.153l1.139-2.172l1.452-2.021l1.774-1.812l2.178-1.536
		l48.494-0.952l2.008,0.051l2.091-0.051l3.102,0.051l2.048,0.164l1.985,0.397l1.818,0.723l1.664,1.106l1.5,1.537l0.919,2.12
		l0.974,2.103l0.964,2.072l0.997,2.106l0.985,2.073l0.968,2.099l0.959,2.102l0.913,2.099l0.89,2.165l0.817,2.148l0.755,2.183
		l0.694,2.189l0.59,2.271l0.542,2.294l0.379,2.329l0.3,2.358l-0.113,3.409l-0.8,1.583l-1.044,1.229l-1.272,0.969l-1.432,0.703
		l-1.551,0.618l-1.556,0.535l-1.59,0.537l-1.54,0.609l-1.456,0.759l-1.274,1.021l-0.785,1.321l-0.07,1.58l0.336,1.537l0.854,1.245
		l1.266,0.584l1.308,0.416l1.314,0.306l1.351,0.197l1.354,0.088h1.453l1.387-0.088l1.416-0.076l1.427-0.197l1.379-0.248l1.405-0.244
		l1.394-0.253l1.329-0.239l1.372-0.274l1.306-0.223l2.848-0.424l2.851-0.306l2.813-0.201l2.8-0.123l2.81-0.016l2.756,0.076
		l2.78,0.153l2.782,0.168l2.767,0.248l2.777,0.244l2.791,0.256l2.756,0.252l2.788,0.245l2.782,0.163l2.773,0.205l2.825,0.108
		l2.8,0.031l2.831-0.031l2.84-0.137l2.88-0.264l1.332-0.521l1.375-1.387l0.468-1.146l0.124-1.293l-0.229-1.273L318.704,177.318z
		 M229.231,110.748L228.56,112l-1.343,0.689l-44.482,0.508l-1.277-0.953l-0.643-1.321l1.156-5.196l2.472-5.285l2.426-5.263
		l2.442-5.299l2.409-5.299l2.445-5.299l2.478-5.245l2.574-5.23l2.646-5.259l3.343-5.117l2.66,4.862l2.538,4.894l2.493,4.968
		l2.372,4.97l2.335,5.007l2.351,5.007l2.27,5.007l2.317,5.008l2.348,5.007l2.445,6.012L229.231,110.748z"/>
	<polygon fill="#0054A4" points="453.697,138.708 452.602,137.537 451.054,137.004 449.543,137.106 447.345,139.541 445.164,141.92 
		442.901,144.201 440.601,146.435 438.273,148.548 435.872,150.577 433.412,152.56 430.892,154.41 428.346,156.197 425.748,157.833 
		423.105,159.362 420.39,160.836 417.673,162.121 414.849,163.3 412.009,164.369 409.133,165.301 406.199,166.074 404.483,166.398 
		402.775,166.741 401.055,167.11 399.318,167.425 397.565,167.749 395.799,167.994 394.066,168.181 392.303,168.3 390.533,168.348 
		388.77,168.242 387.003,167.994 385.091,166.596 383.547,164.844 382.423,162.789 381.796,160.607 381.796,44.459 381.81,42.933 
		381.857,41.481 381.935,39.984 382.041,38.576 382.208,37.134 382.423,35.766 382.715,34.408 383.081,33.065 383.512,31.766 
		384.058,30.499 384.675,29.298 386.376,27.024 387.559,26.075 388.996,25.028 390.705,23.955 392.634,22.926 394.679,22.141 
		396.799,21.506 398.934,20.929 400.099,20.192 401.127,18.604 401.449,17.334 401.474,16.057 401.361,14.816 400.719,13.608 
		399.183,12.298 397.875,11.86 396.525,11.791 392.284,12.327 388.054,12.729 383.792,13.031 379.521,13.173 375.222,13.236 
		370.89,13.236 366.606,13.159 362.281,13.01 357.995,12.787 353.683,12.521 349.4,12.25 345.116,11.958 340.831,11.67 
		336.584,11.374 332.367,11.13 328.142,10.889 326.27,10.94 324.364,10.889 322.474,10.838 320.608,10.94 318.82,11.163 
		317.156,11.623 315.656,12.426 314.345,13.648 313.692,15.137 313.754,16.597 314.076,17.966 315.276,19.725 316.572,20.561 
		317.988,20.805 319.418,21.024 320.849,21.214 322.302,21.411 323.729,21.634 325.123,21.896 326.533,22.188 327.9,22.514 
		329.24,22.926 330.564,23.411 331.832,23.999 333.069,24.678 335.378,26.514 337.298,28.663 338.113,29.86 338.772,31.083 
		339.364,32.295 339.894,33.546 340.346,34.86 340.715,36.211 341.018,37.58 341.317,38.948 341.597,40.342 341.828,41.725 
		342.047,43.17 342.273,44.554 342.521,45.996 342.521,153.241 342.474,154.821 342.405,156.413 342.292,157.979 342.126,159.486 
		341.937,161.023 341.675,162.513 341.354,163.987 340.923,165.42 340.422,166.789 339.772,168.132 339.032,169.453 
		337.466,171.475 335.886,172.819 334.134,173.83 332.291,174.6 330.387,175.26 328.542,175.95 326.754,176.734 325.051,177.771 
		323.55,179.133 323.287,180.783 323.416,182.348 324.011,183.808 325.087,185.037 327.484,185.322 329.864,185.512 
		332.259,185.588 334.623,185.588 336.992,185.436 339.379,185.298 341.736,185.053 344.113,184.815 346.499,184.529 
		348.894,184.216 351.292,183.932 353.701,183.669 356.116,183.439 358.58,183.271 361.043,183.21 363.507,183.147 366.051,183.084 
		368.401,183.07 370.799,183.008 373.216,182.973 375.62,183.008 378.076,183.07 380.522,183.21 382.964,183.348 385.405,183.516 
		387.89,183.702 390.343,183.913 392.789,184.129 395.274,184.345 397.708,184.529 400.147,184.713 402.603,184.851 
		405.034,185.006 407.441,185.082 409.863,185.158 412.25,185.158 414.644,185.082 417.018,185.006 419.316,184.815 
		421.652,184.561 423.952,184.216 426.2,183.779 428.47,183.253 430.681,182.61 432.879,181.865 435.046,180.997 437.163,180.046 
		439.405,178.677 441.003,177.396 442.63,175.829 444.141,174.139 445.537,172.465 446.813,170.685 447.966,168.87 449.041,166.983 
		449.938,165.052 450.792,163.11 451.521,161.1 452.134,159.07 452.66,156.95 453.105,154.821 453.456,152.68 453.697,150.501 
		453.893,148.311 453.988,146.085 454.018,143.812 453.988,141.566 	"/>
	<polygon fill="#0054A4" points="790.168,177.348 788.723,175.95 787.469,175.26 786.052,174.768 784.468,174.413 782.833,174.092 
		781.11,173.801 779.424,173.509 777.782,173.188 776.212,172.709 774.804,172.111 773.527,171.312 772.103,170.269 770.79,169.162 
		769.542,167.965 768.431,166.665 767.417,165.385 766.519,163.932 765.693,162.497 764.964,160.976 764.344,159.438 
		763.833,157.833 763.395,156.219 763.074,154.555 762.81,152.895 762.642,151.22 758.038,65.78 758.008,64.244 757.95,62.678 
		757.819,61.065 757.759,59.452 757.679,57.864 757.598,56.233 757.49,54.561 757.453,52.908 757.403,51.295 757.374,49.612 
		757.374,48.024 757.403,46.364 757.474,44.751 757.598,43.185 757.759,41.605 757.95,40.021 758.211,38.499 758.519,37.01 
		758.919,35.55 759.373,34.108 759.919,32.711 760.526,31.375 761.234,30.053 762.037,28.809 762.928,27.608 764.979,25.338 
		766.206,24.323 767.533,23.342 768.971,22.437 770.198,21.805 771.482,21.36 772.994,20.992 774.533,20.685 776.023,20.36 
		777.547,19.995 778.935,19.601 780.183,18.995 781.665,17.772 782.388,16.634 782.731,15.137 782.715,13.309 781.87,11.893 
		780.665,10.783 779.162,10.083 777.476,9.86 773.694,10.254 769.958,10.583 766.183,10.714 762.41,10.783 758.671,10.824 
		754.891,10.783 751.125,10.67 747.336,10.583 743.563,10.455 739.744,10.378 735.956,10.254 732.117,10.254 730.466,11.353 
		728.832,12.729 727.467,14.254 726.51,15.958 711.262,47.732 672.605,127.676 669.627,122.274 666.75,116.854 664,111.408 
		661.277,105.941 658.553,100.496 655.824,95.025 617.08,16.597 616.05,15.086 614.925,13.539 613.655,12.112 612.225,10.889 
		610.583,10.006 608.808,9.593 603.837,10.151 598.888,10.546 593.955,10.783 588.983,10.94 584.064,10.94 579.121,10.783 
		574.166,10.546 569.224,10.151 563.472,9.593 561.72,9.572 560.048,9.607 558.42,9.838 556.931,10.33 555.618,11.163 
		554.538,12.426 554.325,14.301 554.464,15.845 555.289,17.55 556.683,18.718 557.888,19.265 559.26,19.623 560.713,19.922 
		562.253,20.13 563.815,20.331 565.355,20.561 566.837,20.827 568.23,21.214 570.048,22.079 571.45,22.648 572.757,23.342 
		573.968,24.126 576.196,25.984 578.063,28.101 578.925,29.254 579.676,30.466 580.392,31.766 580.968,33.108 581.559,34.43 
		582.005,35.813 582.427,37.211 582.815,38.624 583.101,40.061 583.34,41.51 583.501,42.918 583.575,54.89 583.72,66.948 
		583.837,79.065 583.961,91.218 584.064,103.453 584.093,115.679 583.991,127.949 583.764,140.146 583.575,141.961 583.399,143.789 
		583.209,145.599 583.012,147.388 582.764,149.188 582.501,150.968 582.187,152.749 581.822,154.494 581.414,156.245 
		580.968,157.928 580.435,159.606 579.823,161.268 579.144,162.866 578.363,164.417 577.486,165.968 576.486,167.425 
		575.362,168.87 574.203,170.237 572.858,171.553 571.282,173.017 569.997,173.754 568.662,174.336 567.297,174.83 565.917,175.323 
		564.596,175.829 562.867,176.797 561.567,178.188 561.019,179.425 560.837,181.06 561.224,182.61 562.143,183.779 563.289,184.669 
		564.618,185.221 566.092,185.267 571.078,184.669 576.122,184.191 581.166,183.837 586.239,183.632 591.253,183.556 
		596.327,183.632 601.363,183.837 606.407,184.191 611.421,184.669 617.122,185.19 618.596,185.053 620.042,184.851 
		621.408,184.482 623.167,183.424 624.056,182.221 624.21,180.367 624.013,178.841 623.042,177.118 621.531,175.921 
		620.262,175.323 618.837,174.83 617.34,174.413 615.824,174.016 614.284,173.6 612.809,173.093 611.421,172.479 609.706,171.312 
		608.092,170.237 606.618,169.07 605.275,167.841 604.012,166.596 602.911,165.253 601.903,163.888 600.947,162.45 600.107,161.005 
		599.415,159.486 598.744,157.903 598.196,156.314 597.714,154.684 597.267,153.02 596.954,151.308 596.656,149.577 
		596.443,147.844 596.269,146.085 596.159,144.277 596.1,142.449 596.048,140.64 596.072,138.803 596.1,136.953 596.159,135.124 
		596.238,133.241 596.34,131.362 597.488,68.186 598.955,70.627 600.384,73.098 601.845,75.642 603.283,78.229 604.596,80.817 
		605.867,83.489 607.005,86.116 654.306,179.133 655.247,180.83 655.846,182.026 656.941,183.669 658.393,184.851 659.664,185.234 
		661.444,184.345 663.16,182.194 663.948,181.06 664.597,179.793 665.174,178.522 665.766,177.271 666.298,175.983 666.809,174.676 
		667.32,173.341 667.838,172.049 668.401,170.774 668.904,169.529 707.321,86.116 718.38,65.16 722.59,135.585 723.466,162.373 
		723.643,163.54 723.693,165.651 723.379,167.395 722.693,168.918 721.766,170.205 720.583,171.267 719.183,172.22 717.678,173.049 
		716.08,173.765 714.431,174.523 712.759,175.213 711.175,175.997 709.62,176.853 708.248,177.771 707.05,178.917 706.832,180.443 
		707.05,181.865 707.715,183.271 709.198,185.037 712.313,185.037 715.437,184.961 718.525,184.79 721.671,184.529 724.81,184.216 
		727.978,183.913 731.125,183.592 734.336,183.3 737.519,183.008 740.694,182.818 743.906,182.75 747.167,182.75 750.417,182.855 
		752.627,182.778 754.796,182.778 757,182.818 759.154,183.008 761.307,183.21 763.417,183.439 765.541,183.731 767.657,184.001 
		769.76,184.301 771.827,184.561 773.935,184.79 776.067,185.006 778.155,185.096 780.278,185.169 782.388,185.158 784.49,185.006 
		786.643,184.79 789.46,183.947 790.971,182.221 791.037,180.26 790.775,178.614 	"/>
	<polygon fill="#0054A4" points="549.012,177.88 547.451,176.853 546.135,176.413 544.698,176.103 543.136,175.907 541.501,175.734 
		539.822,175.581 538.166,175.413 536.574,175.137 535.012,174.768 533.669,174.26 531.909,173.063 530.582,172.296 
		528.281,170.482 526.362,168.376 525.538,167.228 524.771,166.012 524.142,164.785 523.587,163.493 523.091,162.15 
		522.668,160.836 522.339,159.438 522.07,158.056 521.873,156.677 521.873,49.243 521.894,47.853 521.894,46.418 521.873,44.966 
		521.873,42.112 521.894,40.674 521.967,39.283 522.07,37.919 522.231,36.579 522.478,35.251 522.778,33.962 523.171,32.696 
		523.618,31.488 524.931,29.199 526.019,27.272 527.383,25.783 528.917,24.583 530.61,23.656 532.39,22.893 534.18,22.174 
		535.939,21.437 537.603,20.576 539.122,19.502 540.419,18.112 540.741,16.721 540.646,15.324 540.208,14.009 538.64,12.426 
		536.376,12.16 534.135,12.006 531.909,12.006 529.655,12.006 527.435,12.16 525.193,12.298 522.945,12.521 520.72,12.729 
		518.435,12.933 516.158,13.141 513.843,13.309 511.566,13.371 509.223,13.371 506.88,13.309 503.96,13.404 501.099,13.404 
		498.259,13.309 495.405,13.159 492.594,12.933 489.798,12.729 487.004,12.426 484.222,12.16 481.426,11.86 478.652,11.623 
		475.901,11.374 473.091,11.181 470.309,11.053 467.529,11.005 464.733,11.035 461.922,11.163 459.097,11.4 455.522,12.006 
		454.229,12.867 453.245,14.112 452.674,15.63 452.565,17.229 453.506,18.827 454.748,20.021 456.236,20.9 457.916,21.484 
		459.726,21.856 461.601,22.112 463.536,22.298 465.413,22.48 467.193,22.711 468.814,23.364 470.325,24.075 471.711,24.9 
		472.967,25.783 475.208,27.732 477.041,29.933 477.82,31.097 478.529,32.32 479.113,33.615 479.646,34.937 480.113,36.334 
		480.507,37.747 480.842,39.178 481.126,40.674 481.339,42.21 481.507,43.722 481.631,45.284 481.734,46.896 481.792,48.514 
		481.799,50.145 481.792,51.755 481.785,53.4 481.704,55.058 481.631,56.718 481.58,58.401 481.507,60.043 481.426,61.696 
		481.353,63.332 481.318,64.952 481.258,66.554 481.229,68.167 481.229,69.711 481.258,71.248 481.318,72.784 481.413,160.516 
		481.091,162.742 480.616,164.906 479.908,166.983 478.865,168.895 477.354,170.685 476.404,171.972 475.208,172.972 
		473.842,173.765 472.368,174.413 470.865,174.921 469.325,175.413 467.821,175.907 466.426,176.442 465.178,177.143 
		463.682,178.614 462.996,179.936 462.66,181.625 462.682,183.21 463.733,184.893 464.997,185.714 466.186,186.096 468.711,186.172 
		471.617,185.666 475.04,185.221 478.449,184.851 481.872,184.574 485.289,184.421 488.718,184.358 492.157,184.358 
		495.595,184.421 499.041,184.574 502.485,184.731 505.93,184.961 509.369,185.169 512.814,185.393 516.252,185.637 
		519.719,185.845 523.136,186.049 526.559,186.22 530.026,186.374 533.449,186.417 536.858,186.417 540.333,186.327 
		543.734,186.158 546.982,185.559 549.209,184.129 550.15,182.702 550.231,180.906 549.983,179.49 	"/>
</g>
</svg>
