<svg xmlns="http://www.w3.org/2000/svg" fill="none" viewBox="0 0 131 30" height="30" width="131">
<g id="Group 4">
<path fill="#770000" d="M86.0026 3.65424C77.3686 3.65424 70.1675 9.61604 70.1675 16.7074C70.1675 23.7988 77.3686 29.6204 86.0026 29.6204C94.6367 29.6204 101.838 23.7988 101.838 16.7074C101.838 9.61604 94.6367 3.65424 86.0026 3.65424ZM86.0026 24.7686C80.5674 24.7686 76.2581 21.1248 76.2581 16.7074C76.2581 12.29 80.5674 8.50608 86.0026 8.50608C91.4379 8.50608 95.7472 12.2928 95.7472 16.7074C95.7472 21.122 91.4353 24.7686 86.0026 24.7686Z" id="Vector"></path>
<path fill="#770000" d="M50.8397 3.61212C47.6175 3.61212 44.7933 4.44739 42.5177 5.85726C42.2317 6.03384 42.2031 6.46549 42.4553 6.69252L45.6099 9.50945C45.7997 9.67763 46.0624 9.71407 46.286 9.59915C47.6331 8.90122 49.1285 8.46397 50.8397 8.46397C56.2724 8.46397 59.2007 12.2507 59.2007 16.6653V20.1998C59.2007 20.7575 58.6 21.0687 58.1943 20.7211C57.1332 19.8046 55.5728 18.4592 55.266 18.2041C52.7434 16.1047 49.6564 13.8708 45.8985 13.2289C45.3992 13.1448 44.9051 13.1 44.4162 13.1C42.5151 13.1 40.7363 13.7419 39.293 14.9723C37.6182 16.399 36.6065 18.4704 36.4427 20.8052C36.2789 23.1344 36.9498 25.2871 38.3333 26.8679C39.8391 28.5889 42.008 29.5811 44.541 29.5811C44.6008 29.5811 44.6606 29.5811 44.7205 29.5811C47.3029 29.5363 49.8021 28.5721 52.7252 26.5652C53.1829 26.2513 53.9605 25.6458 54.4286 25.2759C54.6626 25.0909 54.9825 25.1021 55.2062 25.3011L59.0239 28.7122C59.1383 28.8131 59.2813 28.8692 59.427 28.8692H64.636C64.9767 28.8692 65.2549 28.5721 65.2549 28.2021V16.6737C65.2549 9.58233 59.4686 3.62053 50.8371 3.62053L50.8397 3.61212ZM50.7643 21.7862C48.7852 23.482 46.8582 24.4154 45.3368 24.4154C43.8154 24.4154 42.5125 23.0784 42.5125 21.3714C42.5125 19.6644 43.753 18.3274 45.3368 18.3274C46.9206 18.3274 48.7852 19.2608 50.7643 20.9566C51.014 21.1696 51.014 21.576 50.7643 21.7918V21.7862Z" id="Vector_2"></path>
<path fill="#770000" d="M130.525 19.5803H125.587C125.373 19.5803 125.186 19.7316 125.129 19.9558C124.281 23.3474 121.244 24.9506 117.694 24.2863C114.443 23.6781 112.883 21.5031 112.875 17.4921C112.872 16.2168 112.875 13.3606 112.875 10.1484C112.875 9.86815 113.088 9.63551 113.351 9.63551H124.716C124.978 9.63551 125.191 9.40567 125.191 9.12258V4.94063C125.191 4.65753 124.978 4.42769 124.716 4.42769H113.351C113.091 4.42769 112.875 4.19786 112.875 3.91476C112.875 2.68989 112.875 1.33608 112.875 0.621337C112.875 0.338242 112.662 0.111206 112.399 0.111206H107.354C107.091 0.111206 106.878 0.341045 106.878 0.624139V3.91476C106.878 4.19786 106.665 4.42769 106.402 4.42769H103.349C103.086 4.42769 102.873 4.65753 102.873 4.94063V9.12258C102.873 9.40567 103.086 9.63551 103.349 9.63551H106.402C106.665 9.63551 106.878 9.86535 106.878 10.1484V18.1508C107.029 23.1175 109.242 26.7473 113.595 28.6337C118.071 30.5733 124.692 29.553 127.857 25.9989C129.321 24.3536 130.609 22.0048 130.988 20.1969C131.056 19.8802 130.824 19.5803 130.523 19.5803H130.525Z" id="Vector_3"></path>
<path fill="#770000" d="M31.036 4.36884H25.8945C25.6319 4.36884 25.4186 4.59867 25.4186 4.88177V19.0617C25.4186 20.0287 25.117 21.077 24.4798 21.7637C23.6476 22.6607 22.5215 22.8597 21.4605 22.6691C20.5945 22.5121 18.9613 22.2682 13.2867 13.9436L7.29752 4.65754C7.18309 4.47815 6.99325 4.37164 6.7904 4.37164H1.58916C1.24848 4.37164 0.970215 4.66875 0.970215 5.03873V28.3954C0.970215 28.6785 1.18347 28.9084 1.44613 28.9084H6.42371C6.68637 28.9084 6.89962 28.6785 6.89962 28.3954V14.4537C6.89962 14.2211 7.26891 14.1034 7.48216 14.3977C7.73442 14.7452 10.3923 18.7982 10.3923 18.7982C13.5754 23.367 16.7846 29.5558 22.9428 29.5558C24.8933 29.5558 26.6721 29.0625 28.0557 27.9946C28.3365 27.7956 28.6096 27.5742 28.8722 27.3303C30.5158 25.8055 31.5119 23.751 31.5119 21.248V4.88177C31.5119 4.59867 31.2986 4.36884 31.036 4.36884Z" id="Vector_4"></path>
</g>
</svg>
