<?xml version="1.0" encoding="utf-8"?>
<!-- Generator: Adobe Illustrator 16.0.0, SVG Export Plug-In . SVG Version: 6.00 Build 0)  -->
<!DOCTYPE svg PUBLIC "-//W3C//DTD SVG 1.1//EN" "http://www.w3.org/Graphics/SVG/1.1/DTD/svg11.dtd">
<svg version="1.1" id="Layer_1" xmlns="http://www.w3.org/2000/svg" xmlns:xlink="http://www.w3.org/1999/xlink" x="0px" y="0px"
	 width="800px" height="264.81px" viewBox="0 0 800 264.81" enable-background="new 0 0 800 264.81" xml:space="preserve">
<g>
	<path fill-rule="evenodd" clip-rule="evenodd" fill="#008BD0" d="M167.53,27.561l-30.014,59.254l-3.91-3.285
		c1.336-3.848,2.031-6.512,2.031-8.123c0-4.273-2.727-8.736-8.122-13.326c-10.203-8.49-22.884-12.764-37.941-12.764
		c-8.121,0-15.302,1.673-21.59,5.079c-8.767,4.71-13.175,11.718-13.175,21.076c0,7.621,3.713,13.633,11.144,18.158
		c3.567,2.17,11.735,5.639,24.514,10.54l25.21,9.606c20.007,7.501,34.224,16.917,42.741,28.324
		c9.164,12.085,13.77,27.398,13.77,45.931c0,19.149-4.808,35.267-14.363,48.468c-7.528,10.411-17.929,18.097-31.201,23.056
		c-9.56,3.658-19.861,5.451-30.907,5.451c-15.151,0-30.111-3.156-44.822-9.541c-4.061-1.674-9.902-4.711-17.581-9.113l-4.456-2.414
		c-4.357-2.295-7.031-3.477-8.023-3.477c-1.733,0-4.46,2.298-8.271,6.824l-4.061-2.732l26.544-60.863l4.112,2.916
		c-0.841,3.595-1.287,6.195-1.287,7.622c0,3.53,1.735,7.127,5.249,10.722c5.001,5.267,11.688,9.67,20.007,13.327
		c9.212,3.904,18.823,5.828,28.777,5.828c12.675,0,23.279-3.102,31.696-9.238c8.22-6.075,12.332-14.317,12.332-24.729
		c0-9.174-3.713-16.43-11.196-21.754c-4.507-3.284-13.22-7.376-26.097-12.333l-24.218-9.302
		c-19.909-7.622-33.726-16.239-41.453-25.781c-8.817-11.033-13.226-25.04-13.226-42.089c0-16.732,4.409-31.36,13.226-43.941
		c12.182-17.665,30.854-26.53,56.111-26.53c18.771,0,36.748,5.391,53.935,16.24c6.386,4.026,10.597,6.074,12.628,6.074
		c2.626,0,5.302-2.105,7.976-6.258L167.53,27.561z M167.53,27.561"/>
	<path fill-rule="evenodd" clip-rule="evenodd" fill="#008BD0" d="M221.851,70.535v178.681c0.151,3.64,0.719,6.068,1.669,7.282
		c0.944,1.427,2.726,2.692,5.338,3.699v5.274h-42.74v-5.274c2.656-1.007,4.474-2.272,5.418-3.699
		c0.874-1.214,1.443-3.643,1.669-7.282V70.535c0-3.111-0.532-5.436-1.551-7.07c-1.025-1.581-2.881-2.905-5.537-3.905v-5.28h42.74
		v5.28c-2.538,0.794-4.318,2.058-5.338,3.693C222.57,64.467,222.001,66.894,221.851,70.535L221.851,70.535z M221.851,70.535"/>
	<path fill-rule="evenodd" clip-rule="evenodd" fill="#008BD0" d="M291.601,178.717v70.66c0.235,3.641,0.827,6.068,1.729,7.281
		c0.983,1.428,2.834,2.64,5.546,3.539v5.274h-44.361v-5.274c2.749-1.007,4.638-2.221,5.621-3.539
		c0.906-1.213,1.495-3.641,1.734-7.281V70.535c0-3.111-0.555-5.436-1.617-7.07c-1.063-1.581-2.989-2.905-5.738-3.905v-5.28h70.552
		c15.144,0,26.197,2.427,33.158,7.288c8.141,5.746,14.199,14.455,18.208,26.12c3.068,8.968,4.605,18.678,4.605,29.182
		c0,19.103-4.916,34.196-14.71,45.327c-4.761,5.333-10.894,9.451-18.41,12.195l25.488,66.276
		c4.521,11.614,9.832,18.103,15.89,19.529v5.274h-49.791v-5.274c4.245-0.426,6.368-2.062,6.368-4.964
		c0-2.055-0.747-5.063-2.199-8.968l-25.764-67.549H291.601z M291.601,145.153h34.647c9.207,0,15.693-2.583,19.429-7.754
		c3.737-5.172,5.625-12.298,5.625-21.265c0-8.819-1.889-15.727-5.625-20.691c-3.736-5.062-10.222-7.599-19.429-7.599h-34.647
		V145.153z M291.601,145.153"/>
	<path fill-rule="evenodd" clip-rule="evenodd" fill="#008BD0" d="M476.003,265.472l-44.075-151.772v135.517
		c0,3.118,0.451,5.437,1.387,6.966c0.902,1.586,2.599,2.904,5.127,4.016v5.274h-36.696v-5.274c2.43-1.007,4.089-2.272,4.958-3.699
		c0.865-1.214,1.387-3.643,1.523-7.282V70.535c0-3.111-0.484-5.436-1.419-7.07c-0.936-1.586-2.633-2.905-5.063-3.905v-5.28h49.931
		v5.28c-3.877,1.213-5.818,3.693-5.818,7.385c0,2.588,0.729,6.489,2.219,11.608l29.242,101.797l30.041-101.797
		c1.975-6.805,2.946-10.924,2.946-12.344c0-3.434-1.94-5.649-5.822-6.649v-5.28h49.964v5.28c-2.388,0.896-4.052,2.163-4.986,3.693
		c-0.87,1.213-1.387,3.64-1.527,7.282v178.681c0.141,3.64,0.657,6.068,1.527,7.282c0.865,1.427,2.528,2.692,4.986,3.699v5.274
		H515.33v-5.274c2.393-1.007,4.019-2.272,4.884-3.699c0.869-1.214,1.386-3.643,1.527-7.282V113.699L476.003,265.472z
		 M476.003,265.472"/>
	<path fill-rule="evenodd" clip-rule="evenodd" fill="#008BD0" d="M610.808,236.062c-1.599,6.62-2.374,11.158-2.374,13.614
		c0,3.849,2.463,6.748,7.383,8.892v6.242h-49.756v-6.242c3.416-1.131,5.922-3.024,7.516-5.739c1.461-2.456,3.19-7.754,5.24-15.887
		l48.938-197.462c1.688-6.621,2.553-11.033,2.553-13.115c0-3.464-2.642-5.989-7.929-7.565v-6.304h58.235V18.8
		c-4.921,1.45-7.383,3.975-7.383,7.565c0,2.335,0.822,6.747,2.416,13.115l26.947,111.959h98.791l0.268,4.723l-89.879,33.422
		l11.396,47.358c2.232,8.955,4.239,14.563,6.016,16.771c1.594,2.267,4.01,3.844,7.2,4.854v6.242h-54.682v-6.242
		c4.926-2.144,7.384-5.043,7.384-8.892c0-2.584-0.776-7.122-2.369-13.614c-3.521-14.146-6.89-28.394-10.175-42.693l-49.771-1.145
		l-0.268-6.403l42.528-25.717c-6.491-29.142-12.858-58.385-19.679-87.399C636.473,127.148,624.014,181.823,610.808,236.062
		L610.808,236.062z M610.808,236.062"/>
	<path fill-rule="evenodd" clip-rule="evenodd" fill="#008BD0" d="M724.838,90.208c4.578,0,8.724,2.272,11.722,5.942
		c2.999,3.67,4.854,8.744,4.854,14.347c0,5.596-1.855,10.67-4.854,14.34c-2.998,3.669-7.144,5.941-11.722,5.941
		c-4.577,0-8.718-2.271-11.721-5.941c-2.998-3.67-4.85-8.744-4.85-14.34c0-5.603,1.852-10.676,4.85-14.347
		C716.12,92.479,720.261,90.208,724.838,90.208L724.838,90.208z M734.75,98.364c-2.537-3.105-6.038-5.027-9.912-5.027
		c-3.867,0-7.373,1.922-9.911,5.027c-2.533,3.102-4.103,7.393-4.103,12.132c0,4.733,1.569,9.025,4.103,12.131
		c2.538,3.1,6.044,5.021,9.911,5.021c3.874,0,7.375-1.921,9.912-5.021c2.539-3.106,4.104-7.398,4.104-12.131
		C738.854,105.757,737.289,101.465,734.75,98.364L734.75,98.364z M734.75,98.364"/>
	<path fill-rule="evenodd" clip-rule="evenodd" fill="#008BD0" d="M718.15,122.052V98.768h7.558c1.522,0,2.679,0.212,3.469,0.627
		c0.789,0.419,1.419,1.156,1.894,2.214c0.47,1.058,0.705,2.226,0.705,3.509c0,1.65-0.39,3.043-1.175,4.176
		c-0.78,1.134-1.988,1.853-3.624,2.158c0.597,0.391,1.054,0.782,1.363,1.161c0.658,0.823,1.278,1.859,1.865,3.101l2.947,6.338
		h-2.819l-2.251-4.843c-0.658-1.404-1.204-2.473-1.626-3.215c-0.428-0.742-0.809-1.254-1.147-1.553
		c-0.334-0.293-0.682-0.501-1.029-0.622c-0.254-0.069-0.672-0.109-1.255-0.109h-2.612v10.342H718.15z M720.412,109.046h4.844
		c1.035,0,1.834-0.149,2.416-0.438c0.578-0.287,1.021-0.753,1.316-1.403c0.302-0.638,0.452-1.328,0.452-2.082
		c0-1.104-0.287-2.013-0.875-2.72c-0.583-0.714-1.504-1.064-2.763-1.064h-5.391V109.046z M720.412,109.046"/>
</g>
</svg>
